# xmcd
#
# Track frame offsets: 
#        150
#        10752
#        22406
#        33254
#        45097
#        57730
#        72840
#        86148
#        97964
#        110151
#        121540
#        139065
#        152318
#        163660
#
# Disc length: 2329 seconds
#
# Revision: 0
# Processed by: cddbd v1.5.2PL0 Copyright (c) Steve Scherf et al.
# Submitted via: ExactAudioCopy v1.0b4
#
DISCID=ae09170e
DTITLE=Sonny Boy Williamson - The Chess Years Vol 2 (LP)
DYEAR=1900
DGENRE=Blues
TTITLE0=Fattening Frogs For Snakes
TTITLE1=Hurts Me So Much
TTITLE2=I Don't Know
TTITLE3=This Is My Apartment
TTITLE4=Like Wolf
TTITLE5=Cross My Heard
TTITLE6=Unseen Eye
TTITLE7=Ninety Nine
TTITLE8=Dissatisfied
TTITLE9=Born Blind
TTITLE10=Little Village
TTITLE11=Wake Up Baby
TTITLE12=She Got Next To Me
TTITLE13=Your Funeral And My Trial
EXTD=
EXTT0=
EXTT1=
EXTT2=
EXTT3=
EXTT4=
EXTT5=
EXTT6=
EXTT7=
EXTT8=
EXTT9=
EXTT10=
EXTT11=
EXTT12=
EXTT13=
PLAYORDER=
